<?xml version="1.0" encoding="UTF-8" standalone="no"?>
<!-- Created with Inkscape (http://www.inkscape.org/) -->

<svg
   xmlns:dc="http://purl.org/dc/elements/1.1/"
   xmlns:cc="http://creativecommons.org/ns#"
   xmlns:rdf="http://www.w3.org/1999/02/22-rdf-syntax-ns#"
   xmlns:svg="http://www.w3.org/2000/svg"
   xmlns="http://www.w3.org/2000/svg"
   xmlns:sodipodi="http://sodipodi.sourceforge.net/DTD/sodipodi-0.dtd"
   xmlns:inkscape="http://www.inkscape.org/namespaces/inkscape"
   width="210mm"
   height="297mm"
   viewBox="0 0 210 297"
   version="1.1"
   id="svg8"
   sodipodi:docname="fox+clever.svg"
   inkscape:version="0.92.4 (5da689c313, 2019-01-14)">
  <defs
     id="defs2" />
  <sodipodi:namedview
     id="base"
     pagecolor="#ffffff"
     bordercolor="#666666"
     borderopacity="1.0"
     inkscape:pageopacity="0.0"
     inkscape:pageshadow="2"
     inkscape:zoom="0.7"
     inkscape:cx="206.31138"
     inkscape:cy="858.33929"
     inkscape:document-units="mm"
     inkscape:current-layer="layer1"
     showgrid="false"
     inkscape:window-width="1280"
     inkscape:window-height="634"
     inkscape:window-x="0"
     inkscape:window-y="31"
     inkscape:window-maximized="1" />
  <metadata
     id="metadata5">
    <rdf:RDF>
      <cc:Work
         rdf:about="">
        <dc:format>image/svg+xml</dc:format>
        <dc:type
           rdf:resource="http://purl.org/dc/dcmitype/StillImage" />
        <dc:title></dc:title>
      </cc:Work>
    </rdf:RDF>
  </metadata>
  <g
     inkscape:label="Layer 1"
     inkscape:groupmode="layer"
     id="layer1">
    <g
       id="g4285"
       transform="matrix(14.748893,0,0,14.748893,-1276.6576,-957.87384)">
      <g
         transform="matrix(0.35277777,0,0,-0.35277777,92.065067,75.826413)"
         id="g230">
        <path
           inkscape:connector-curvature="0"
           id="path232"
           style="fill:#ffffff;fill-opacity:1;fill-rule:nonzero;stroke:none"
           d="m 0,0 v -0.417 h -2.152 l 1.2,1.437 c 0.149,0.18 0.258,0.338 0.327,0.474 0.068,0.136 0.103,0.26 0.103,0.371 0,0.159 -0.047,0.284 -0.142,0.376 -0.094,0.092 -0.223,0.137 -0.387,0.137 -0.146,0 -0.266,-0.045 -0.362,-0.137 C -1.508,2.149 -1.561,2.029 -1.573,1.88 h -0.502 c 0,0.288 0.096,0.518 0.289,0.69 0.193,0.172 0.453,0.258 0.779,0.258 0.31,0 0.555,-0.08 0.734,-0.239 0.179,-0.16 0.269,-0.377 0.269,-0.652 0,-0.196 -0.052,-0.394 -0.155,-0.593 -0.103,-0.2 -0.321,-0.49 -0.655,-0.87 L -1.222,0 Z" />
      </g>
      <g
         transform="matrix(0.35277777,0,0,-0.35277777,92.653147,75.844863)"
         id="g234">
        <path
           inkscape:connector-curvature="0"
           id="path236"
           style="fill:#ffffff;fill-opacity:1;fill-rule:nonzero;stroke:none"
           d="m 0,0 c 0.213,0 0.374,0.102 0.481,0.306 0.108,0.204 0.162,0.509 0.162,0.916 0,0.395 -0.053,0.695 -0.159,0.903 -0.106,0.207 -0.261,0.31 -0.464,0.31 -0.212,0 -0.373,-0.103 -0.48,-0.31 -0.109,-0.206 -0.163,-0.51 -0.163,-0.912 0,-0.391 0.054,-0.691 0.161,-0.9 C -0.354,0.104 -0.2,0 0,0 M 1.165,1.182 C 1.165,0.672 1.062,0.272 0.856,-0.017 0.651,-0.306 0.369,-0.45 0.009,-0.45 c -0.364,0 -0.648,0.146 -0.85,0.438 -0.203,0.291 -0.304,0.701 -0.304,1.229 0,0.524 0.102,0.932 0.307,1.224 0.205,0.293 0.489,0.439 0.854,0.439 0.368,0 0.651,-0.147 0.851,-0.44 C 1.065,2.147 1.165,1.728 1.165,1.182" />
      </g>
      <g
         transform="matrix(0.35277777,0,0,-0.35277777,94.225336,72.9203)"
         id="g262">
        <path
           inkscape:connector-curvature="0"
           id="path264"
           style="fill:#ffffff;fill-opacity:1;fill-rule:nonzero;stroke:none"
           d="M 0,0 H 0.187 2.08 C 2.493,0 2.517,0.04 2.348,0.433 2.144,0.906 1.651,1.16 1.083,1.085 0.527,1.011 0.075,0.563 0,0 M 1.565,-1.053 H 0.133 c -0.183,0 -0.185,-0.004 -0.113,-0.179 0.238,-0.581 0.775,-0.907 1.453,-0.893 0.412,0.008 0.793,0.104 1.148,0.319 0.282,0.17 0.596,0.109 0.776,-0.133 C 3.59,-2.198 3.564,-2.531 3.328,-2.758 2.984,-3.088 2.558,-3.26 2.101,-3.344 1.192,-3.511 0.331,-3.381 -0.427,-2.827 -1.676,-1.913 -1.938,-0.147 -1.034,1.118 -0.056,2.484 2.114,2.667 3.234,1.416 3.685,0.913 3.871,0.309 3.859,-0.354 3.852,-0.758 3.572,-1.04 3.167,-1.054 2.633,-1.072 2.099,-1.059 1.565,-1.059 Z" />
      </g>
      <g
         transform="matrix(0.35277777,0,0,-0.35277777,95.081105,72.456256)"
         id="g266">
        <path
           inkscape:connector-curvature="0"
           id="path268"
           style="fill:#ffffff;fill-opacity:1;fill-rule:nonzero;stroke:none"
           d="M 0,0 C 0.205,-0.167 0.37,-0.384 0.481,-0.642 0.584,-0.88 0.739,-1.241 0.514,-1.583 0.462,-1.662 0.4,-1.723 0.334,-1.769 c 0.13,10e-4 0.259,0.004 0.386,0.008 0.088,0.003 0.103,0.028 0.105,0.102 C 0.834,-1.112 0.681,-0.67 0.354,-0.305 0.25,-0.188 0.131,-0.086 0,0 m 0.53,-3.633 z m -2.69,3.742 c -0.323,-0.153 -0.603,-0.379 -0.804,-0.661 -0.714,-0.997 -0.502,-2.387 0.47,-3.099 0.579,-0.424 1.253,-0.557 2.059,-0.41 0.347,0.063 0.621,0.18 0.833,0.354 -0.404,-0.22 -0.844,-0.333 -1.339,-0.342 -0.937,-0.019 -1.695,0.456 -2.029,1.271 -0.057,0.14 -0.177,0.432 0.02,0.726 0.066,0.098 0.144,0.163 0.225,0.206 -0.059,0.034 -0.113,0.077 -0.159,0.13 -0.116,0.132 -0.168,0.307 -0.145,0.481 0.075,0.568 0.404,1.055 0.869,1.344 m 1.118,-5.445 c -0.804,0 -1.531,0.234 -2.171,0.702 -1.509,1.104 -1.842,3.253 -0.742,4.791 0.581,0.812 1.554,1.33 2.601,1.388 C -0.333,1.601 0.621,1.223 1.262,0.507 1.795,-0.089 2.058,-0.825 2.042,-1.681 2.033,-2.176 1.781,-2.586 1.39,-2.806 1.415,-2.833 1.437,-2.861 1.46,-2.891 1.834,-3.395 1.777,-4.077 1.324,-4.513 0.922,-4.898 0.419,-5.142 -0.215,-5.259 -0.499,-5.311 -0.774,-5.336 -1.042,-5.336" />
      </g>
      <g
         transform="matrix(0.35277777,0,0,-0.35277777,98.553743,72.9203)"
         id="g270">
        <path
           inkscape:connector-curvature="0"
           id="path272"
           style="fill:#ffffff;fill-opacity:1;fill-rule:nonzero;stroke:none"
           d="M 0,0 C 0.363,0 0.727,0.004 1.09,-0.002 1.2,-0.004 1.24,0.023 1.222,0.14 1.173,0.438 1.049,0.689 0.802,0.872 0.093,1.393 -0.986,0.988 -1.196,0.123 -1.222,0.02 -1.187,-0.003 -1.09,-0.001 -0.727,0.003 -0.363,0 0,0 M 0.432,-1.047 H -1 c -0.207,0 -0.212,-0.012 -0.128,-0.208 0.228,-0.528 0.651,-0.785 1.202,-0.85 0.494,-0.059 0.96,0.03 1.385,0.302 0.265,0.169 0.563,0.126 0.753,-0.099 0.199,-0.236 0.197,-0.584 -0.003,-0.812 -0.195,-0.222 -0.464,-0.321 -0.726,-0.429 -1.237,-0.508 -2.676,-0.201 -3.53,0.76 -0.401,0.452 -0.611,0.99 -0.659,1.592 -0.076,0.937 0.218,1.734 0.915,2.371 0.4,0.365 0.879,0.578 1.414,0.659 C 0.579,2.385 1.418,2.154 2.085,1.432 2.534,0.945 2.714,0.344 2.704,-0.306 2.697,-0.759 2.373,-1.043 1.915,-1.046 1.421,-1.05 0.926,-1.047 0.432,-1.047" />
      </g>
      <g
         transform="matrix(0.35277777,0,0,-0.35277777,98.82196,72.361359)"
         id="g274">
        <path
           inkscape:connector-curvature="0"
           id="path276"
           style="fill:#ffffff;fill-opacity:1;fill-rule:nonzero;stroke:none"
           d="M 0,0 C 0.142,-0.056 0.277,-0.13 0.402,-0.223 0.763,-0.488 0.984,-0.866 1.062,-1.347 1.11,-1.646 1.005,-1.842 0.908,-1.955 0.886,-1.979 0.863,-2.002 0.839,-2.023 c 0.104,0 0.208,0 0.312,0.001 0.182,10e-4 0.183,0.075 0.184,0.14 0.008,0.543 -0.142,0.974 -0.458,1.317 C 0.622,-0.289 0.331,-0.101 0,0 M 0.82,-4.021 C 0.814,-4.024 0.809,-4.026 0.803,-4.029 c 0.006,0.003 0.011,0.005 0.017,0.008 m -2.384,3.933 c -0.214,-0.088 -0.405,-0.209 -0.577,-0.367 -0.545,-0.498 -0.78,-1.11 -0.718,-1.872 0.039,-0.492 0.205,-0.896 0.507,-1.236 0.677,-0.762 1.845,-1.009 2.84,-0.603 -0.387,-0.137 -0.804,-0.181 -1.245,-0.128 -0.804,0.094 -1.389,0.514 -1.69,1.213 -0.063,0.146 -0.195,0.451 0.005,0.754 0.066,0.1 0.146,0.167 0.228,0.212 -0.098,0.051 -0.167,0.116 -0.215,0.177 -0.094,0.118 -0.192,0.322 -0.119,0.621 0.13,0.532 0.49,0.977 0.984,1.229 m 1.045,-5.495 c -1.039,0 -2.044,0.424 -2.743,1.211 -0.477,0.538 -0.75,1.193 -0.811,1.947 -0.093,1.146 0.281,2.112 1.111,2.869 0.477,0.437 1.06,0.71 1.733,0.812 C -0.035,1.439 1.002,1.094 1.772,0.26 2.303,-0.315 2.565,-1.042 2.553,-1.9 2.545,-2.409 2.287,-2.828 1.883,-3.055 1.895,-3.067 1.906,-3.081 1.917,-3.094 2.309,-3.558 2.304,-4.248 1.906,-4.7 1.629,-5.015 1.283,-5.156 1.005,-5.27 l -0.05,-0.021 c -0.48,-0.196 -0.981,-0.292 -1.474,-0.292" />
      </g>
      <g
         transform="matrix(0.35277777,0,0,-0.35277777,90.708389,73.114116)"
         id="g278">
        <path
           inkscape:connector-curvature="0"
           id="path280"
           style="fill:#ffffff;fill-opacity:1;fill-rule:nonzero;stroke:none"
           d="M 0,0 C -0.013,1.328 1.006,2.509 2.323,2.703 2.476,2.726 2.627,2.745 2.781,2.743 3.19,2.738 3.497,2.441 3.505,2.04 3.512,1.658 3.209,1.353 2.802,1.333 2.195,1.303 1.747,1.021 1.515,0.458 1.302,-0.059 1.393,-0.548 1.766,-0.969 c 0.373,-0.42 0.847,-0.568 1.387,-0.419 0.543,0.15 0.878,0.521 1.002,1.074 0.02,0.087 0.027,0.179 0.03,0.27 0.014,0.394 0.327,0.7 0.713,0.696 C 5.286,0.647 5.603,0.336 5.591,-0.063 5.56,-1.098 5.092,-1.896 4.204,-2.418 2.425,-3.463 0.194,-2.308 0.001,-0.256 -0.007,-0.171 0,-0.085 0,0" />
      </g>
      <g
         transform="matrix(0.35277777,0,0,-0.35277777,91.681809,72.361182)"
         id="g282">
        <path
           inkscape:connector-curvature="0"
           id="path284"
           style="fill:#ffffff;fill-opacity:1;fill-rule:nonzero;stroke:none"
           d="M 0,0 C -0.11,0 -0.232,-0.016 -0.347,-0.033 -1.368,-0.184 -2.16,-1.104 -2.151,-2.129 v -0.005 c 0,-0.033 0,-0.065 -0.001,-0.097 -10e-4,-0.04 -0.002,-0.081 0,-0.102 0.071,-0.76 0.514,-1.418 1.185,-1.762 0.675,-0.345 1.442,-0.321 2.103,0.068 0.707,0.415 1.062,1.019 1.087,1.848 0.001,0.025 -0.006,0.043 -0.021,0.059 -0.01,0.011 -0.033,0.028 -0.07,0.029 C 2.078,-2.084 2.036,-2.137 2.034,-2.2 2.03,-2.311 2.021,-2.442 1.99,-2.583 1.815,-3.36 1.306,-3.902 0.556,-4.109 c -0.762,-0.21 -1.473,0.004 -2.005,0.602 -0.532,0.599 -0.659,1.331 -0.358,2.063 0.314,0.764 0.961,1.208 1.82,1.251 0.047,0.002 0.125,0.023 0.124,0.087 C 0.136,-0.08 0.135,-0.001 0.014,0 Z m 0.021,-5.552 c -0.528,0 -1.055,0.124 -1.542,0.373 -1.044,0.534 -1.733,1.555 -1.844,2.732 -0.009,0.094 -0.007,0.179 -0.005,0.247 10e-4,0.021 10e-4,0.042 0.002,0.063 -0.014,1.618 1.235,3.071 2.843,3.308 0.162,0.024 0.352,0.05 0.555,0.047 0.741,-0.01 1.31,-0.569 1.324,-1.301 0.013,-0.708 -0.55,-1.291 -1.281,-1.327 -0.393,-0.019 -0.618,-0.168 -0.754,-0.498 -0.123,-0.298 -0.079,-0.541 0.143,-0.791 0.221,-0.249 0.459,-0.322 0.769,-0.236 0.318,0.087 0.494,0.279 0.571,0.62 0.01,0.044 0.013,0.107 0.015,0.159 0.026,0.728 0.616,1.293 1.33,1.282 C 2.504,-0.878 2.836,-1.021 3.081,-1.277 3.323,-1.53 3.451,-1.863 3.44,-2.216 3.403,-3.461 2.819,-4.451 1.753,-5.077 1.215,-5.393 0.618,-5.552 0.021,-5.552" />
      </g>
      <g
         transform="matrix(0.35277777,0,0,-0.35277777,96.598296,73.318057)"
         id="g286">
        <path
           inkscape:connector-curvature="0"
           id="path288"
           style="fill:#ffffff;fill-opacity:1;fill-rule:nonzero;stroke:none"
           d="M 0,0 C 0.254,0.522 0.507,1.042 0.76,1.561 0.996,2.045 1.232,2.529 1.468,3.013 1.606,3.296 1.848,3.423 2.147,3.407 2.442,3.392 2.657,3.225 2.769,2.947 2.859,2.721 2.812,2.505 2.706,2.292 2.208,1.292 1.714,0.289 1.219,-0.713 1.028,-1.099 0.843,-1.489 0.641,-1.87 0.42,-2.286 -0.055,-2.4 -0.433,-2.143 c -0.107,0.073 -0.178,0.175 -0.234,0.287 -0.703,1.412 -1.405,2.824 -2.104,4.237 -0.189,0.383 -0.072,0.746 0.29,0.942 0.343,0.186 0.762,0.083 0.957,-0.273 0.245,-0.447 0.457,-0.912 0.682,-1.371 0.247,-0.504 0.49,-1.01 0.738,-1.514 C -0.078,0.11 -0.063,0.046 0,0" />
      </g>
      <g
         transform="matrix(0.35277777,0,0,-0.35277777,95.846774,72.328268)"
         id="g290">
        <path
           inkscape:connector-curvature="0"
           id="path292"
           style="fill:#ffffff;fill-opacity:1;fill-rule:nonzero;stroke:none"
           d="m 0,0 c -0.021,0 -0.042,-0.008 -0.061,-0.018 -0.042,-0.023 -0.058,-0.042 -0.061,-0.047 -0.001,-0.006 0.001,-0.037 0.027,-0.09 0.619,-1.251 1.241,-2.502 1.863,-3.752 l 0.24,-0.483 c 0.022,-0.045 0.034,-0.057 0.035,-0.057 0.024,-0.016 0.064,-0.036 0.103,-0.027 0.032,0.008 0.063,0.038 0.087,0.084 0.142,0.267 0.28,0.549 0.413,0.822 0.053,0.107 0.105,0.213 0.158,0.319 l 0.475,0.962 c 0.337,0.682 0.673,1.364 1.012,2.044 0.039,0.078 0.053,0.131 0.043,0.158 C 4.303,-0.01 4.284,-0.009 4.245,-0.006 4.172,-0.002 4.17,-0.01 4.146,-0.06 L 2.678,-3.072 C 2.599,-3.234 2.453,-3.353 2.278,-3.396 2.104,-3.439 1.919,-3.404 1.773,-3.298 1.587,-3.164 1.514,-2.99 1.482,-2.916 1.354,-2.653 1.23,-2.398 1.105,-2.142 0.984,-1.893 0.863,-1.643 0.741,-1.394 0.68,-1.27 0.62,-1.145 0.561,-1.02 0.397,-0.681 0.244,-0.361 0.072,-0.048 0.052,-0.012 0.026,0 0,0 m 2.123,-5.694 c -0.268,0 -0.533,0.082 -0.768,0.242 -0.182,0.124 -0.325,0.294 -0.438,0.52 l -0.24,0.483 C 0.055,-3.198 -0.567,-1.947 -1.187,-0.694 -1.52,-0.02 -1.295,0.698 -0.641,1.053 0.007,1.404 0.79,1.177 1.141,0.537 1.327,0.195 1.495,-0.154 1.658,-0.493 1.717,-0.615 1.775,-0.737 1.835,-0.859 1.93,-1.052 2.024,-1.246 2.118,-1.439 L 3.051,0.475 C 3.294,0.971 3.753,1.24 4.31,1.209 4.839,1.181 5.26,0.875 5.463,0.369 5.609,0.006 5.582,-0.382 5.381,-0.785 5.043,-1.465 4.707,-2.146 4.371,-2.826 L 3.895,-3.789 C 3.843,-3.894 3.792,-3.999 3.74,-4.104 3.603,-4.385 3.46,-4.675 3.309,-4.961 3.121,-5.316 2.812,-5.563 2.438,-5.656 2.334,-5.682 2.228,-5.694 2.123,-5.694" />
      </g>
      <g
         transform="matrix(0.35277777,0,0,-0.35277777,93.435714,72.635749)"
         id="g294">
        <path
           inkscape:connector-curvature="0"
           id="path296"
           style="fill:#ffffff;fill-opacity:1;fill-rule:nonzero;stroke:none"
           d="m 0,0 c 0,-1.153 0.001,-2.307 -0.001,-3.461 -0.001,-0.372 -0.255,-0.661 -0.609,-0.707 -0.355,-0.047 -0.699,0.177 -0.8,0.523 -0.033,0.115 -0.036,0.235 -0.036,0.354 0,2.251 0,4.501 0,6.752 10e-4,0.401 0.21,0.697 0.55,0.785 0.389,0.102 0.768,-0.124 0.862,-0.515 C -0.008,3.621 0.001,3.507 0,3.393 -0.001,2.262 0,1.131 0,0" />
      </g>
      <g
         transform="matrix(0.35277777,0,0,-0.35277777,93.435714,72.635749)"
         id="g298">
        <path
           inkscape:connector-curvature="0"
           id="path300"
           style="fill:#ffffff;fill-opacity:1;fill-rule:nonzero;stroke:none"
           d="M 0,0 H 0.001 Z M -0.709,3.662 C -0.72,3.662 -0.73,3.66 -0.742,3.657 -0.768,3.65 -0.837,3.632 -0.837,3.461 c 0,-2.251 0,-4.501 0,-6.752 0,-0.053 0,-0.143 0.012,-0.184 0.016,-0.056 0.078,-0.097 0.136,-0.09 0.019,0.003 0.079,0.011 0.079,0.106 0.002,0.817 0.002,1.635 0.001,2.453 v 1.76 c 0,0.88 0,1.76 0.001,2.64 0,0.08 -0.006,0.144 -0.018,0.195 -0.007,0.029 -0.02,0.05 -0.041,0.061 -0.012,0.008 -0.026,0.012 -0.042,0.012 m 0.006,-8.445 c -0.586,0 -1.124,0.392 -1.291,0.968 -0.056,0.191 -0.061,0.371 -0.061,0.524 0,2.251 0,4.502 0,6.752 0.001,0.676 0.395,1.215 1.006,1.374 0.347,0.091 0.706,0.041 1.008,-0.14 C 0.262,4.514 0.474,4.222 0.558,3.874 0.593,3.728 0.61,3.57 0.609,3.392 0.608,2.513 0.608,1.634 0.608,0.754 L 0.609,0 v -1.006 c 0,-0.819 0,-1.638 -0.002,-2.456 -0.001,-0.672 -0.48,-1.223 -1.137,-1.31 -0.058,-0.008 -0.116,-0.011 -0.173,-0.011" />
      </g>
      <g
         transform="matrix(0.35277777,0,0,-0.35277777,100.25805,72.346366)"
         id="g302">
        <path
           inkscape:connector-curvature="0"
           id="path304"
           style="fill:#ffffff;fill-opacity:1;fill-rule:nonzero;stroke:none"
           d="M 0,0 C 0.372,0.405 0.812,0.585 1.323,0.593 1.68,0.599 1.938,0.396 2.004,0.073 2.072,-0.261 1.904,-0.585 1.589,-0.72 1.484,-0.765 1.375,-0.792 1.261,-0.804 0.522,-0.879 0.049,-1.402 0.046,-2.151 0.043,-2.861 0.052,-3.571 0.042,-4.281 0.034,-4.812 -0.444,-5.139 -0.943,-4.96 c -0.291,0.105 -0.461,0.32 -0.493,0.633 -0.004,0.046 -0.005,0.091 -0.005,0.137 -10e-4,1.363 -0.002,2.726 0,4.089 C -1.44,0.4 -1.044,0.725 -0.555,0.624 -0.236,0.559 -0.065,0.341 0,0" />
      </g>
      <g
         transform="matrix(0.35277777,0,0,-0.35277777,100.72985,72.351869)"
         id="g306">
        <path
           inkscape:connector-curvature="0"
           id="path308"
           style="fill:#ffffff;fill-opacity:1;fill-rule:nonzero;stroke:none"
           d="m 0,0 h -0.005 c -0.365,-0.005 -0.638,-0.127 -0.884,-0.396 -0.002,-0.002 -0.005,-0.005 -0.007,-0.008 0.224,0.117 0.479,0.193 0.758,0.221 0.054,0.006 0.103,0.018 0.15,0.038 0.061,0.027 0.065,0.075 0.058,0.111 C 0.067,-0.018 0.063,-0.01 0.062,-0.009 0.059,-0.007 0.039,0 0,0 m -2.067,0.049 c -0.029,0 -0.052,-0.006 -0.066,-0.017 -0.023,-0.019 -0.036,-0.063 -0.036,-0.118 -0.002,-1.038 -0.002,-2.075 -10e-4,-3.112 v -0.976 c 0,-0.025 0,-0.05 0.003,-0.075 0.008,-0.084 0.025,-0.098 0.092,-0.123 0.053,-0.018 0.097,-0.018 0.126,0.002 0.038,0.026 0.044,0.082 0.045,0.114 0.006,0.438 0.005,0.885 0.004,1.318 -0.001,0.269 -0.001,0.537 0,0.805 0.002,0.664 0.281,1.22 0.748,1.569 -0.112,-0.036 -0.234,-0.04 -0.352,-0.006 -0.221,0.063 -0.388,0.245 -0.432,0.472 -0.019,0.102 -0.044,0.131 -0.045,0.131 0,0.001 -0.012,0.006 -0.034,0.01 -0.019,0.004 -0.037,0.006 -0.052,0.006 m 0.064,-5.652 c -0.16,0 -0.323,0.028 -0.483,0.085 -0.512,0.185 -0.837,0.602 -0.892,1.145 -0.007,0.066 -0.01,0.132 -0.01,0.198 v 0.977 c -10e-4,1.038 -10e-4,2.076 10e-4,3.114 10e-4,0.423 0.178,0.81 0.486,1.06 0.306,0.25 0.719,0.345 1.131,0.26 0.169,-0.035 0.407,-0.116 0.615,-0.307 0.338,0.186 0.716,0.282 1.132,0.289 C 0.625,1.227 1.138,0.823 1.263,0.21 1.39,-0.409 1.072,-1.015 0.491,-1.264 c -0.159,-0.069 -0.33,-0.112 -0.506,-0.13 -0.429,-0.044 -0.666,-0.308 -0.668,-0.743 -0.001,-0.266 0,-0.532 0,-0.798 0.002,-0.438 0.003,-0.891 -0.004,-1.339 -0.006,-0.451 -0.213,-0.851 -0.568,-1.097 -0.223,-0.153 -0.481,-0.232 -0.748,-0.232" />
      </g>
      <g
         id="g4224">
        <g
           id="g238"
           transform="matrix(0.35277777,0,0,-0.35277777,89.794765,73.345609)">
          <path
             d="m 0,0 c -0.357,-0.52 -0.793,-0.898 -1.379,-1.082 -0.218,-0.068 -0.442,-0.094 -0.674,-0.098 0.028,0.15 0.057,0.287 0.077,0.427 0.102,0.684 -0.004,1.341 -0.272,1.974 -0.352,0.833 -0.938,1.478 -1.65,2.016 -0.216,0.162 -0.443,0.309 -0.671,0.468 0.591,-0.047 1.171,-0.036 1.715,0.214 0.297,-0.453 0.762,-0.687 1.206,-0.942 0.354,-0.205 0.723,-0.385 1.026,-0.669 0.565,-0.53 0.913,-1.177 1.078,-1.932 0.065,-0.301 0.132,-0.601 0.132,-0.908 0.003,-1.1 -0.453,-1.972 -1.343,-2.612 -0.69,-0.495 -1.464,-0.796 -2.305,-0.918 -1.487,-0.213 -2.755,0.259 -3.858,1.246 -0.44,0.395 -0.726,0.895 -0.993,1.41 -0.318,0.613 -0.578,1.251 -0.812,1.901 -0.098,0.274 -0.219,0.537 -0.394,0.774 -0.289,0.391 -0.593,0.532 -1.081,0.513 0.241,0.135 0.478,0.277 0.723,0.402 0.501,0.254 1.031,0.425 1.591,0.486 1.001,0.11 1.88,-0.172 2.628,-0.85 0.427,-0.387 0.688,-0.88 0.886,-1.412 0.095,-0.253 0.19,-0.507 0.291,-0.758 0.276,-0.69 0.8,-1.066 1.518,-1.203 0.486,-0.092 0.96,-0.076 1.41,0.148 0.573,0.284 0.922,0.764 1.151,1.345 0.003,0.008 0,0.019 0,0.06"
             style="fill:#ffffff;fill-opacity:1;fill-rule:nonzero;stroke:none"
             id="path240"
             inkscape:connector-curvature="0" />
        </g>
        <g
           id="g242"
           transform="matrix(0.35277777,0,0,-0.35277777,89.594775,73.288247)">
          <path
             d="M 0,0 C 0,0 0,-0.001 0,-0.001 0,-0.001 0,0 0,0 m -1.944,2.615 c 0.351,-0.408 0.624,-0.845 0.824,-1.32 0.262,-0.619 0.38,-1.246 0.355,-1.869 0.314,0.149 0.582,0.394 0.83,0.756 0.07,0.102 0.167,0.177 0.277,0.221 -0.163,0.514 -0.431,0.939 -0.814,1.298 -0.192,0.18 -0.441,0.32 -0.706,0.468 -0.07,0.039 -0.139,0.078 -0.208,0.118 L -1.515,2.36 C -1.654,2.439 -1.799,2.522 -1.944,2.615 M -8.22,1.663 c 0.055,-0.06 0.108,-0.125 0.16,-0.195 0.19,-0.258 0.342,-0.553 0.477,-0.93 0.258,-0.718 0.505,-1.298 0.78,-1.827 0.23,-0.442 0.485,-0.902 0.858,-1.236 1.025,-0.916 2.126,-1.275 3.366,-1.096 0.754,0.108 1.439,0.381 2.036,0.809 0.465,0.334 0.778,0.734 0.946,1.21 -0.209,-0.208 -0.447,-0.377 -0.716,-0.511 -0.53,-0.263 -1.118,-0.329 -1.795,-0.2 -0.948,0.18 -1.629,0.725 -1.97,1.575 -0.102,0.255 -0.198,0.512 -0.295,0.77 C -4.575,0.573 -4.799,0.936 -5.098,1.207 -5.716,1.766 -6.42,1.993 -7.251,1.902 -7.575,1.867 -7.899,1.787 -8.22,1.663 m 5.036,-6.546 c -1.295,0 -2.494,0.486 -3.573,1.451 -0.526,0.471 -0.845,1.04 -1.127,1.582 -0.3,0.579 -0.569,1.206 -0.845,1.976 -0.094,0.263 -0.193,0.459 -0.31,0.618 -0.167,0.226 -0.278,0.277 -0.569,0.267 -0.28,-0.01 -0.533,0.173 -0.609,0.444 -0.076,0.271 0.044,0.559 0.289,0.696 0.073,0.041 0.146,0.082 0.219,0.124 0.168,0.097 0.342,0.196 0.525,0.289 0.586,0.298 1.191,0.482 1.8,0.549 1.18,0.129 2.224,-0.209 3.103,-1.004 0.585,-0.529 0.879,-1.195 1.049,-1.651 0.093,-0.249 0.186,-0.497 0.285,-0.744 0.167,-0.418 0.446,-0.667 0.892,-0.791 0.016,0.086 0.032,0.168 0.044,0.251 0.082,0.548 0.006,1.087 -0.231,1.647 -0.278,0.66 -0.755,1.238 -1.456,1.767 -0.135,0.102 -0.279,0.2 -0.43,0.303 -0.074,0.049 -0.147,0.1 -0.222,0.151 -0.225,0.157 -0.318,0.446 -0.225,0.705 0.092,0.259 0.347,0.424 0.621,0.402 0.471,-0.037 0.969,-0.043 1.413,0.161 0.274,0.126 0.599,0.032 0.764,-0.22 0.187,-0.285 0.501,-0.465 0.864,-0.672 L -0.777,3.341 C -0.713,3.304 -0.648,3.268 -0.583,3.231 -0.267,3.054 0.061,2.871 0.361,2.589 1,1.991 1.422,1.235 1.617,0.344 1.69,0.009 1.763,-0.324 1.764,-0.693 1.767,-1.992 1.23,-3.038 0.167,-3.801 -0.59,-4.345 -1.456,-4.69 -2.406,-4.827 -2.668,-4.864 -2.928,-4.883 -3.184,-4.883"
             style="fill:#ffffff;fill-opacity:1;fill-rule:nonzero;stroke:none"
             id="path244"
             inkscape:connector-curvature="0" />
        </g>
        <g
           id="g246"
           transform="matrix(0.35277777,0,0,-0.35277777,89.371714,71.143005)">
          <path
             d="m 0,0 c -0.281,-0.018 -0.523,-0.04 -0.767,-0.047 -0.419,-0.012 -0.839,-0.026 -1.258,-0.017 -0.422,0.009 -0.844,0.052 -1.266,0.066 -0.492,0.017 -0.977,-0.046 -1.438,-0.223 -0.4,-0.154 -0.59,-0.489 -0.681,-0.888 -0.098,-0.433 -0.066,-0.867 0.011,-1.298 0.042,-0.233 0.098,-0.464 0.154,-0.724 -0.045,0.05 -0.074,0.086 -0.107,0.12 -0.511,0.544 -0.917,1.15 -1.12,1.878 -0.192,0.694 -0.136,1.379 0.069,2.058 0.256,0.846 0.696,1.594 1.23,2.291 0.204,0.266 0.427,0.519 0.655,0.795 0.021,-0.056 0.034,-0.085 0.043,-0.115 0.145,-0.455 0.293,-0.91 0.433,-1.367 0.031,-0.104 0.079,-0.125 0.182,-0.118 0.559,0.034 1.111,-0.009 1.626,-0.25 0.18,-0.084 0.351,-0.2 0.503,-0.328 C -1.079,1.281 -0.329,0.964 0.514,0.854 0.58,0.846 0.646,0.835 0.711,0.836 0.783,0.838 0.803,0.808 0.799,0.741 0.723,-0.373 0.282,-1.518 -1.179,-2.011 c -0.571,-0.193 -1.16,-0.244 -1.758,-0.221 -0.248,0.009 -0.495,0.036 -0.743,0.055 v 0.028 c 0.229,0.056 0.458,0.107 0.686,0.168 0.707,0.186 1.396,0.421 2.019,0.816 0.338,0.214 0.645,0.465 0.838,0.826 C -0.083,-0.24 -0.051,-0.129 0,0"
             style="fill:#ffffff;fill-opacity:1;fill-rule:nonzero;stroke:none"
             id="path248"
             inkscape:connector-curvature="0" />
        </g>
        <g
           id="g250"
           transform="matrix(0.35277777,0,0,-0.35277777,87.695138,70.16821)">
          <path
             d="M 0,0 C -0.518,-0.691 -0.867,-1.352 -1.068,-2.015 -1.23,-2.552 -1.27,-3.041 -1.186,-3.5 c 0.177,0.535 0.51,0.899 0.992,1.084 0.509,0.195 1.073,0.284 1.676,0.263 C 1.681,-2.16 1.88,-2.172 2.078,-2.185 2.307,-2.2 2.524,-2.214 2.74,-2.219 c 0.365,-0.007 0.727,0.003 1.111,0.014 l 0.117,0.004 H 3.97 C 3.483,-2.009 3.035,-1.739 2.628,-1.396 2.507,-1.293 2.38,-1.21 2.26,-1.153 1.905,-0.987 1.482,-0.926 0.931,-0.96 0.539,-0.985 0.24,-0.779 0.127,-0.412 0.086,-0.274 0.043,-0.137 0,0 m -0.492,-6.503 c -0.171,0 -0.338,0.071 -0.456,0.205 l -0.044,0.05 c -0.019,0.021 -0.034,0.04 -0.05,0.057 -0.641,0.679 -1.054,1.377 -1.264,2.132 -0.21,0.756 -0.186,1.54 0.073,2.396 0.251,0.833 0.686,1.646 1.329,2.486 0.148,0.193 0.305,0.379 0.457,0.559 0.07,0.083 0.141,0.167 0.212,0.253 C -0.097,1.802 0.12,1.884 0.333,1.848 0.547,1.812 0.727,1.667 0.803,1.464 L 0.821,1.418 C 0.837,1.378 0.848,1.349 0.857,1.318 L 0.964,0.986 C 1.041,0.747 1.118,0.507 1.193,0.267 c 0.608,0.005 1.12,-0.1 1.583,-0.318 0.22,-0.102 0.434,-0.242 0.639,-0.415 0.552,-0.468 1.184,-0.742 1.93,-0.839 L 5.38,-1.31 C 5.404,-1.313 5.428,-1.317 5.452,-1.318 5.725,-1.311 5.898,-1.446 5.975,-1.526 6.069,-1.625 6.177,-1.798 6.159,-2.063 6.015,-4.163 4.779,-5.01 3.768,-5.351 3.18,-5.549 2.534,-5.632 1.793,-5.604 1.608,-5.597 1.428,-5.582 1.253,-5.566 1.178,-5.56 1.102,-5.553 1.026,-5.547 0.705,-5.523 0.459,-5.252 0.464,-4.931 v 0.024 c 0.002,0.279 0.194,0.521 0.465,0.587 l 0.217,0.052 c 0.153,0.036 0.306,0.072 0.457,0.112 0.531,0.14 1.214,0.348 1.817,0.722 C 3.187,-3.439 2.951,-3.441 2.715,-3.436 2.472,-3.431 2.231,-3.416 1.999,-3.4 1.813,-3.388 1.627,-3.376 1.441,-3.37 1.001,-3.355 0.599,-3.417 0.242,-3.553 0.126,-3.597 0.01,-3.683 -0.064,-4.007 -0.13,-4.301 -0.125,-4.627 -0.047,-5.063 -0.021,-5.209 0.013,-5.36 0.048,-5.52 0.066,-5.599 0.084,-5.681 0.103,-5.766 0.161,-6.037 0.029,-6.312 -0.218,-6.437 -0.305,-6.481 -0.399,-6.503 -0.492,-6.503"
             style="fill:#ffffff;fill-opacity:1;fill-rule:nonzero;stroke:none"
             id="path252"
             inkscape:connector-curvature="0" />
        </g>
        <g
           id="g254"
           transform="matrix(0.35277777,0,0,-0.35277777,88.450823,69.777861)">
          <path
             d="m 0,0 c -0.101,-0.504 -0.1,-0.986 0.216,-1.443 -0.492,0.214 -0.973,0.316 -1.482,0.175 C -1.224,-0.743 -0.603,-0.118 0,0"
             style="fill:#ffffff;fill-opacity:1;fill-rule:nonzero;stroke:none"
             id="path256"
             inkscape:connector-curvature="0" />
        </g>
        <g
           id="g258"
           transform="matrix(0.35277777,0,0,-0.35277777,88.527129,70.501867)">
          <path
             d="m 0,0 c -0.082,0 -0.164,0.017 -0.243,0.051 -0.438,0.19 -0.76,0.234 -1.077,0.147 -0.191,-0.053 -0.397,-0.01 -0.55,0.117 -0.153,0.127 -0.235,0.32 -0.219,0.518 0.064,0.798 0.884,1.647 1.756,1.817 0.2,0.038 0.405,-0.025 0.548,-0.168 C 0.358,2.338 0.42,2.132 0.381,1.933 0.291,1.484 0.325,1.21 0.5,0.956 0.656,0.732 0.644,0.433 0.471,0.223 0.353,0.078 0.178,0 0,0"
             style="fill:#ffffff;fill-opacity:1;fill-rule:nonzero;stroke:none"
             id="path260"
             inkscape:connector-curvature="0" />
        </g>
        <g
           id="g310"
           transform="matrix(0.35277777,0,0,-0.35277777,89.794765,73.345609)">
          <path
             d="m 0,0 c -0.357,-0.52 -0.793,-0.898 -1.379,-1.082 -0.218,-0.068 -0.442,-0.094 -0.674,-0.098 0.028,0.15 0.057,0.287 0.077,0.427 0.102,0.684 -0.004,1.341 -0.272,1.974 -0.352,0.833 -0.938,1.478 -1.65,2.016 -0.216,0.162 -0.443,0.309 -0.671,0.468 0.591,-0.047 1.171,-0.036 1.715,0.214 0.297,-0.453 0.762,-0.687 1.206,-0.942 0.354,-0.205 0.723,-0.385 1.026,-0.669 0.565,-0.53 0.913,-1.177 1.078,-1.932 0.065,-0.301 0.132,-0.601 0.132,-0.908 0.003,-1.1 -0.453,-1.972 -1.343,-2.612 -0.69,-0.495 -1.464,-0.796 -2.305,-0.918 -1.487,-0.213 -2.755,0.259 -3.858,1.246 -0.44,0.395 -0.726,0.895 -0.993,1.41 -0.318,0.613 -0.578,1.251 -0.812,1.901 -0.098,0.274 -0.219,0.537 -0.394,0.774 -0.289,0.391 -0.593,0.532 -1.081,0.513 0.241,0.135 0.478,0.277 0.723,0.402 0.501,0.254 1.031,0.425 1.591,0.486 1.001,0.11 1.88,-0.172 2.628,-0.85 0.427,-0.387 0.688,-0.88 0.886,-1.412 0.095,-0.253 0.19,-0.507 0.291,-0.758 0.276,-0.69 0.8,-1.066 1.518,-1.203 0.486,-0.092 0.96,-0.076 1.41,0.148 0.573,0.284 0.922,0.764 1.151,1.345 0.003,0.008 0,0.019 0,0.06"
             style="fill:#da1c23;fill-opacity:1;fill-rule:nonzero;stroke:none"
             id="path312"
             inkscape:connector-curvature="0" />
        </g>
        <g
           id="g314"
           transform="matrix(0.35277777,0,0,-0.35277777,89.371714,71.143005)">
          <path
             d="m 0,0 c -0.281,-0.018 -0.523,-0.04 -0.767,-0.047 -0.419,-0.012 -0.839,-0.026 -1.258,-0.017 -0.422,0.009 -0.844,0.052 -1.266,0.066 -0.492,0.017 -0.977,-0.046 -1.438,-0.223 -0.4,-0.154 -0.59,-0.489 -0.681,-0.888 -0.098,-0.433 -0.066,-0.867 0.011,-1.298 0.042,-0.233 0.098,-0.464 0.154,-0.724 -0.045,0.05 -0.074,0.086 -0.107,0.12 -0.511,0.544 -0.917,1.15 -1.12,1.878 -0.192,0.694 -0.136,1.379 0.069,2.058 0.256,0.846 0.696,1.594 1.23,2.291 0.204,0.266 0.427,0.519 0.655,0.795 0.021,-0.056 0.034,-0.085 0.043,-0.115 0.145,-0.455 0.293,-0.91 0.433,-1.367 0.031,-0.104 0.079,-0.125 0.182,-0.118 0.559,0.034 1.111,-0.009 1.626,-0.25 0.18,-0.084 0.351,-0.2 0.503,-0.328 C -1.079,1.281 -0.329,0.964 0.514,0.854 0.58,0.846 0.646,0.835 0.711,0.836 0.783,0.838 0.803,0.808 0.799,0.741 0.723,-0.373 0.282,-1.518 -1.179,-2.011 c -0.571,-0.193 -1.16,-0.244 -1.758,-0.221 -0.248,0.009 -0.495,0.036 -0.743,0.055 v 0.028 c 0.229,0.056 0.458,0.107 0.686,0.168 0.707,0.186 1.396,0.421 2.019,0.816 0.338,0.214 0.645,0.465 0.838,0.826 C -0.083,-0.24 -0.051,-0.129 0,0"
             style="fill:#da1c23;fill-opacity:1;fill-rule:nonzero;stroke:none"
             id="path316"
             inkscape:connector-curvature="0" />
        </g>
        <g
           id="g318"
           transform="matrix(0.35277777,0,0,-0.35277777,88.450823,69.777861)">
          <path
             d="m 0,0 c -0.101,-0.504 -0.1,-0.986 0.216,-1.443 -0.492,0.214 -0.973,0.316 -1.482,0.175 C -1.224,-0.743 -0.603,-0.118 0,0"
             style="fill:#da1c23;fill-opacity:1;fill-rule:nonzero;stroke:none"
             id="path320"
             inkscape:connector-curvature="0" />
        </g>
      </g>
      <g
         style="fill:#00aad4;fill-opacity:1"
         transform="matrix(0.35277777,0,0,-0.35277777,94.225336,72.9203)"
         id="g322">
        <path
           inkscape:connector-curvature="0"
           id="path324"
           style="fill:#00aad4;fill-opacity:1;fill-rule:nonzero;stroke:none"
           d="M 0,0 H 0.187 2.08 C 2.493,0 2.517,0.04 2.348,0.433 2.144,0.906 1.651,1.16 1.083,1.085 0.527,1.011 0.075,0.563 0,0 M 1.565,-1.053 H 0.133 c -0.183,0 -0.185,-0.004 -0.113,-0.179 0.238,-0.581 0.775,-0.907 1.453,-0.893 0.412,0.008 0.793,0.104 1.148,0.319 0.282,0.17 0.596,0.109 0.776,-0.133 C 3.59,-2.198 3.564,-2.531 3.328,-2.758 2.984,-3.088 2.558,-3.26 2.101,-3.344 1.192,-3.511 0.331,-3.381 -0.427,-2.827 -1.676,-1.913 -1.938,-0.147 -1.034,1.118 -0.056,2.484 2.114,2.667 3.234,1.416 3.685,0.913 3.871,0.309 3.859,-0.354 3.852,-0.758 3.572,-1.04 3.167,-1.054 2.633,-1.072 2.099,-1.059 1.565,-1.059 Z" />
      </g>
      <g
         style="fill:#00aad4;fill-opacity:1"
         transform="matrix(0.35277777,0,0,-0.35277777,98.553743,72.9203)"
         id="g326">
        <path
           inkscape:connector-curvature="0"
           id="path328"
           style="fill:#00aad4;fill-opacity:1;fill-rule:nonzero;stroke:none"
           d="M 0,0 C 0.363,0 0.727,0.004 1.09,-0.002 1.2,-0.004 1.24,0.023 1.222,0.14 1.173,0.438 1.049,0.689 0.802,0.872 0.093,1.393 -0.986,0.988 -1.196,0.123 -1.222,0.02 -1.187,-0.003 -1.09,-0.001 -0.727,0.003 -0.363,0 0,0 M 0.432,-1.047 H -1 c -0.207,0 -0.212,-0.012 -0.128,-0.208 0.228,-0.528 0.651,-0.785 1.202,-0.85 0.494,-0.059 0.96,0.03 1.385,0.302 0.265,0.169 0.563,0.126 0.753,-0.099 0.199,-0.236 0.197,-0.584 -0.003,-0.812 -0.195,-0.222 -0.464,-0.321 -0.726,-0.429 -1.237,-0.508 -2.676,-0.201 -3.53,0.76 -0.401,0.452 -0.611,0.99 -0.659,1.592 -0.076,0.937 0.218,1.734 0.915,2.371 0.4,0.365 0.879,0.578 1.414,0.659 C 0.579,2.385 1.418,2.154 2.085,1.432 2.534,0.945 2.714,0.344 2.704,-0.306 2.697,-0.759 2.373,-1.043 1.915,-1.046 1.421,-1.05 0.926,-1.047 0.432,-1.047" />
      </g>
      <g
         style="fill:#00aad4;fill-opacity:1"
         transform="matrix(0.35277777,0,0,-0.35277777,90.708389,73.114116)"
         id="g330">
        <path
           inkscape:connector-curvature="0"
           id="path332"
           style="fill:#00aad4;fill-opacity:1;fill-rule:nonzero;stroke:none"
           d="M 0,0 C -0.013,1.328 1.006,2.509 2.323,2.703 2.476,2.726 2.627,2.745 2.781,2.743 3.19,2.738 3.497,2.441 3.505,2.04 3.512,1.658 3.209,1.353 2.802,1.333 2.195,1.303 1.747,1.021 1.515,0.458 1.302,-0.059 1.393,-0.548 1.766,-0.969 c 0.373,-0.42 0.847,-0.568 1.387,-0.419 0.543,0.15 0.878,0.521 1.002,1.074 0.02,0.087 0.027,0.179 0.03,0.27 0.014,0.394 0.327,0.7 0.713,0.696 C 5.286,0.647 5.603,0.336 5.591,-0.063 5.56,-1.098 5.092,-1.896 4.204,-2.418 2.425,-3.463 0.194,-2.308 0.001,-0.256 -0.007,-0.171 0,-0.085 0,0" />
      </g>
      <g
         style="fill:#00aad4;fill-opacity:1"
         transform="matrix(0.35277777,0,0,-0.35277777,96.598296,73.318057)"
         id="g334">
        <path
           inkscape:connector-curvature="0"
           id="path336"
           style="fill:#00aad4;fill-opacity:1;fill-rule:nonzero;stroke:none"
           d="M 0,0 C 0.254,0.522 0.507,1.042 0.76,1.561 0.996,2.045 1.232,2.529 1.468,3.013 1.606,3.296 1.848,3.423 2.147,3.407 2.442,3.392 2.657,3.225 2.769,2.947 2.859,2.721 2.812,2.505 2.706,2.292 2.208,1.292 1.714,0.289 1.219,-0.713 1.028,-1.099 0.843,-1.489 0.641,-1.87 0.42,-2.286 -0.055,-2.4 -0.433,-2.143 c -0.107,0.073 -0.178,0.175 -0.234,0.287 -0.703,1.412 -1.405,2.824 -2.104,4.237 -0.189,0.383 -0.072,0.746 0.29,0.942 0.343,0.186 0.762,0.083 0.957,-0.273 0.245,-0.447 0.457,-0.912 0.682,-1.371 0.247,-0.504 0.49,-1.01 0.738,-1.514 C -0.078,0.11 -0.063,0.046 0,0" />
      </g>
      <g
         style="fill:#00aad4;fill-opacity:1"
         transform="matrix(0.35277777,0,0,-0.35277777,93.435714,72.635749)"
         id="g338">
        <path
           inkscape:connector-curvature="0"
           id="path340"
           style="fill:#00aad4;fill-opacity:1;fill-rule:nonzero;stroke:none"
           d="m 0,0 c 0,-1.153 0.001,-2.307 -0.001,-3.461 -0.001,-0.372 -0.255,-0.661 -0.609,-0.707 -0.355,-0.047 -0.699,0.177 -0.8,0.523 -0.033,0.115 -0.036,0.235 -0.036,0.354 0,2.251 0,4.501 0,6.752 10e-4,0.401 0.21,0.697 0.55,0.785 0.389,0.102 0.768,-0.124 0.862,-0.515 C -0.008,3.621 0.001,3.507 0,3.393 -0.001,2.262 0,1.131 0,0" />
      </g>
      <g
         style="fill:#00aad4;fill-opacity:1"
         transform="matrix(0.35277777,0,0,-0.35277777,100.25805,72.346366)"
         id="g342">
        <path
           inkscape:connector-curvature="0"
           id="path344"
           style="fill:#00aad4;fill-opacity:1;fill-rule:nonzero;stroke:none"
           d="M 0,0 C 0.372,0.405 0.812,0.585 1.323,0.593 1.68,0.599 1.938,0.396 2.004,0.073 2.072,-0.261 1.904,-0.585 1.589,-0.72 1.484,-0.765 1.375,-0.792 1.261,-0.804 0.522,-0.879 0.049,-1.402 0.046,-2.151 0.043,-2.861 0.052,-3.571 0.042,-4.281 0.034,-4.812 -0.444,-5.139 -0.943,-4.96 c -0.291,0.105 -0.461,0.32 -0.493,0.633 -0.004,0.046 -0.005,0.091 -0.005,0.137 -10e-4,1.363 -0.002,2.726 0,4.089 C -1.44,0.4 -1.044,0.725 -0.555,0.624 -0.236,0.559 -0.065,0.341 0,0" />
      </g>
    </g>
  </g>
</svg>
